<svg xmlns:mydata="http://www.w3.org/2000/svg" mydata:contrastcolor="feebed" mydata:template="SingleColorHex2" mydata:presentation="2.5" mydata:layouttype="undefined" mydata:specialfontid="undefined" mydata:id1="769" mydata:id2="769" mydata:companyname="elymentor labs" mydata:companytagline="" version="1.1" xmlns="http://www.w3.org/2000/svg" xmlns:xlink="http://www.w3.org/1999/xlink" viewBox="0 0 550 470"><g fill="none" fill-rule="nonzero" stroke="none" stroke-width="1" stroke-linecap="butt" stroke-linejoin="miter" stroke-miterlimit="10" stroke-dasharray="" stroke-dashoffset="0" font-family="none" font-weight="none" font-size="none" text-anchor="none" style="mix-blend-mode: normal"><g data-paper-data="{&quot;isGlobalGroup&quot;:true,&quot;bounds&quot;:{&quot;x&quot;:110.63870669752674,&quot;y&quot;:158.63446417114187,&quot;width&quot;:328.72258660494657,&quot;height&quot;:152.73107165771626}}"><g data-paper-data="{&quot;stacked&quot;:true,&quot;isPrimaryText&quot;:true}"><path d="M110.67993,198.23991h33.73362c0.02276,0 0.04123,-0.01847 0.04123,-0.04123v-7.90415c0,-0.02276 -0.01847,-0.04123 -0.04123,-0.04123h-25.78791v-7.8217h17.88674c0.02276,0 0.04123,-0.01847 0.04123,-0.04123v-7.90415c0,-0.02276 -0.01847,-0.04123 -0.04123,-0.04123h-17.88674v-7.8217h25.78791c0.02276,0 0.04123,-0.01847 0.04123,-0.04123v-7.90415c0,-0.02276 -0.01847,-0.04123 -0.04123,-0.04123h-33.73362c-0.02276,0 -0.04123,0.01847 -0.04123,0.04123v39.52074c0,0.02276 0.01847,0.04123 0.04123,0.04123z" data-paper-data="{&quot;glyphName&quot;:&quot;E&quot;,&quot;glyphIndex&quot;:0,&quot;firstGlyphOfWord&quot;:true,&quot;word&quot;:1,&quot;line&quot;:1,&quot;firstGlyphOfFirstLine&quot;:true}" fill="#f4364c"></path><path d="M149.50199,198.23991h33.73296c0.02276,0 0.04123,-0.01847 0.04123,-0.04123v-7.90415c0,-0.02276 -0.01847,-0.04123 -0.04123,-0.04123h-25.78758v-31.57536c0,-0.02276 -0.01847,-0.04123 -0.04123,-0.04123h-7.90415c-0.02276,0 -0.04123,0.01847 -0.04123,0.04123v39.52074c0,0.02276 0.01847,0.04123 0.04123,0.04123z" data-paper-data="{&quot;glyphName&quot;:&quot;L&quot;,&quot;glyphIndex&quot;:1,&quot;word&quot;:1,&quot;line&quot;:1}" fill="#f4364c"></path><path d="M209.65781,158.65684c-0.00759,-0.01187 -0.02078,-0.01913 -0.03463,-0.01913h-8.7003c-0.01616,0 -0.03067,0.00924 -0.03727,0.02408l-8.12842,17.58925l-8.12907,-17.58925c-0.00693,-0.01451 -0.02111,-0.02408 -0.03727,-0.02408h-8.70063c-0.01418,0 -0.02704,0.00726 -0.03463,0.01913c-0.00726,0.01187 -0.00858,0.02671 -0.00264,0.03958l12.51287,27.09032l0.39874,0.86244v11.55049c0,0.02276 0.01847,0.04123 0.04123,0.04123h7.90085c0.02276,0 0.04123,-0.01847 0.04123,-0.04123v-11.54851l0.39973,-0.86475c0.00033,-0.00099 -0.00033,-0.00264 0,-0.00363l12.51254,-27.08669c0.00627,-0.01253 0.00495,-0.02737 -0.00231,-0.03925z" data-paper-data="{&quot;glyphName&quot;:&quot;Y&quot;,&quot;glyphIndex&quot;:2,&quot;word&quot;:1,&quot;line&quot;:1}" fill="#f4364c"></path><path d="M248.45667,198.19967c0,0.02276 0.01847,0.04123 0.04123,0.04123h7.90217c0.02276,0 0.04123,-0.01847 0.04123,-0.04123v-39.52074c0,-0.02276 -0.01847,-0.04123 -0.04123,-0.04123h-9.29065c-0.01418,0 -0.0277,0.00726 -0.03496,0.01946l-11.51817,18.62715l-11.51817,-18.62715c-0.00726,-0.0122 -0.02078,-0.01946 -0.03496,-0.01946h-9.29065c-0.02276,0 -0.04123,0.01847 -0.04123,0.04123v39.52074c0,0.02276 0.01847,0.04123 0.04123,0.04123h7.89887c0.02276,0 0.04123,-0.01847 0.04123,-0.04123v-26.60551l12.86873,20.80948c0.01484,0.02441 0.05541,0.02441 0.07025,0l12.86543,-20.80289v26.59891z" data-paper-data="{&quot;glyphName&quot;:&quot;M&quot;,&quot;glyphIndex&quot;:3,&quot;word&quot;:1,&quot;line&quot;:1}" fill="#f4364c"></path><path d="M261.50337,198.23991h33.73362c0.02276,0 0.04123,-0.01847 0.04123,-0.04123v-7.90415c0,-0.02276 -0.01847,-0.04123 -0.04123,-0.04123h-25.78791v-7.8217h17.88674c0.02276,0 0.04123,-0.01847 0.04123,-0.04123v-7.90415c0,-0.02276 -0.01847,-0.04123 -0.04123,-0.04123h-17.88674v-7.8217h25.78791c0.02276,0 0.04123,-0.01847 0.04123,-0.04123v-7.90415c0,-0.02276 -0.01847,-0.04123 -0.04123,-0.04123h-33.73362c-0.02276,0 -0.04123,0.01847 -0.04123,0.04123v39.52074c0,0.02276 0.01847,0.04123 0.04123,0.04123z" data-paper-data="{&quot;glyphName&quot;:&quot;E&quot;,&quot;glyphIndex&quot;:4,&quot;word&quot;:1,&quot;line&quot;:1}" fill="#f4364c"></path><path d="M300.32543,198.2409h7.89887c0.02276,0 0.04123,-0.01847 0.04123,-0.04123v-26.60221l16.46692,26.62397c0.00726,0.0122 0.02078,0.01946 0.03496,0.01946h9.29065c0.02276,0 0.04123,-0.01847 0.04123,-0.04123v-39.52074c0,-0.02276 -0.01847,-0.04123 -0.04123,-0.04123h-7.90217c-0.02276,0 -0.04123,0.01847 -0.04123,0.04123v26.60221l-16.46329,-26.62397c-0.00726,-0.0122 -0.02078,-0.01946 -0.03496,-0.01946h-9.29098c-0.02276,0 -0.04123,0.01847 -0.04123,0.04123v39.52074c0,0.02276 0.01847,0.04123 0.04123,0.04123z" data-paper-data="{&quot;glyphName&quot;:&quot;N&quot;,&quot;glyphIndex&quot;:5,&quot;word&quot;:1,&quot;line&quot;:1}" fill="#f4364c"></path><path d="M339.14749,166.62332h12.87302v31.57536c0,0.02276 0.01847,0.04123 0.04123,0.04123h7.90415c0.02276,0 0.04123,-0.01847 0.04123,-0.04123v-31.57536h12.87334c0.02276,0 0.04123,-0.01847 0.04123,-0.04123v-7.90415c0,-0.02276 -0.01847,-0.04123 -0.04123,-0.04123h-33.73296c-0.02276,0 -0.04123,0.01847 -0.04123,0.04123v7.90415c0,0.02276 0.01814,0.04123 0.04123,0.04123z" data-paper-data="{&quot;glyphName&quot;:&quot;T&quot;,&quot;glyphIndex&quot;:6,&quot;word&quot;:1,&quot;line&quot;:1}" fill="#f4364c"></path><path d="M385.82872,190.29327c6.54819,0 11.85655,-5.30836 11.85655,-11.85655c0,-6.54819 -5.30836,-11.85655 -11.85655,-11.85655c-6.54819,0 -11.85655,5.30836 -11.85655,11.85655c0,6.54819 5.30836,11.85655 11.85655,11.85655zM432.44393,186.99718c4.33168,-2.87459 6.91737,-7.68944 6.91737,-12.88983c0,-8.53177 -6.94111,-15.47288 -15.47288,-15.47288h-18.30097c-0.02276,0 -0.04123,0.01847 -0.04123,0.04123v19.76103c0,10.87406 -8.84509,19.72079 -19.71749,19.72079c-0.02276,0 -0.04123,0.01847 -0.04123,0.04123c0,0.02276 0.01847,0.04123 0.04123,0.04123h19.75872c0.00198,0 0.0033,-0.00198 0.00561,-0.00231h7.89656c0.02276,0 0.04123,-0.01847 0.04123,-0.04123v-8.6162h10.35758c0.25461,0 0.50856,-0.00693 0.75592,-0.01913l5.35342,8.65677c0.00759,0.0122 0.02078,0.01979 0.03496,0.01979h9.28736c0.01484,0 0.02869,-0.00791 0.03595,-0.02111c0.00726,-0.01286 0.00693,-0.02902 -0.00099,-0.04156zM428.20492,180.22493c-1.26052,0.89674 -2.75323,1.37068 -4.31651,1.37068h-10.35758v-14.97652h10.35758c4.12918,0 7.48826,3.35941 7.48826,7.48826c0,2.42837 -1.18566,4.71525 -3.17175,6.11758z" data-paper-data="{&quot;glyphName&quot;:&quot;&quot;,&quot;glyphIndex&quot;:7,&quot;lastGlyphOfWord&quot;:true,&quot;word&quot;:1,&quot;line&quot;:1,&quot;lastGlyphOfFirstLine&quot;:true}" fill="#f4364c"></path><path d="M110.73811,311.36474h81.33111c0.05487,0 0.0994,-0.04453 0.0994,-0.0994v-19.05712c0,-0.05487 -0.04453,-0.0994 -0.0994,-0.0994h-62.17459v-76.12908c0,-0.05487 -0.04453,-0.0994 -0.0994,-0.0994h-19.05712c-0.05487,0 -0.0994,0.04453 -0.0994,0.0994v95.2856c0,0.05487 0.04453,0.0994 0.0994,0.0994z" data-paper-data="{&quot;glyphName&quot;:&quot;L&quot;,&quot;glyphIndex&quot;:8,&quot;firstGlyphOfWord&quot;:true,&quot;word&quot;:2,&quot;line&quot;:2,&quot;firstGlyphOfSecondLine&quot;:true}" fill="#f4364c"></path><path d="M214.6683,279.26411h20.6586c0.03181,0 0.06123,-0.01511 0.08031,-0.04055c0.01908,-0.02545 0.02385,-0.05884 0.01431,-0.08906l-10.3293,-32.10114c-0.02624,-0.0827 -0.16301,-0.0827 -0.18925,0l-10.3293,32.10114c-0.00954,0.03022 -0.00398,0.06362 0.01431,0.08906c0.01829,0.02545 0.04851,0.04055 0.08031,0.04055zM241.45769,298.12562h-32.92017c-0.04294,0 -0.08111,0.02783 -0.09463,0.06918l-4.19852,13.04084c-0.00954,0.03022 -0.00398,0.06362 0.01431,0.08906c0.01829,0.02545 0.04851,0.04055 0.08031,0.04055h41.3172c0.03181,0 0.06202,-0.01511 0.08031,-0.04055c0.01829,-0.02545 0.02385,-0.05884 0.01431,-0.08906l-4.19852,-13.04084c-0.01352,-0.04135 -0.05169,-0.06918 -0.09463,-0.06918zM347.09723,244.56435c0,-15.81599 -12.86749,-28.68349 -28.68349,-28.68349h-83.40969c-0.03181,0 -0.06202,0.01511 -0.08031,0.04055c-0.01829,0.02545 -0.02385,0.05884 -0.01431,0.08906l30.66188,95.2856c0.00159,0.00477 0.00875,0.00398 0.01113,0.00795c0.0159,0.0334 0.04374,0.06043 0.0827,0.06123h52.74781c15.81599,0 28.68349,-12.86749 28.68349,-28.68349c0,-7.31082 -2.75369,-13.98789 -7.27265,-19.0595c4.51976,-5.07082 7.27345,-11.74789 7.27345,-19.05792zM318.41375,292.1165h-33.59845v-18.86946h33.59845c5.20202,0 9.43473,4.23271 9.43473,9.43473c0,5.20202 -4.23191,9.43473 -9.43473,9.43473zM318.41375,253.99828h-33.59845v-18.86946h33.59845c5.20202,0 9.43473,4.23271 9.43473,9.43473c0,5.20202 -4.23191,9.43473 -9.43473,9.43473z" data-paper-data="{&quot;glyphName&quot;:&quot;&quot;,&quot;glyphIndex&quot;:9,&quot;word&quot;:2,&quot;line&quot;:2}" fill="#f4364c"></path><path d="M410.67781,292.11678h-24.19791c-5.20282,0 -9.43473,-4.23271 -9.43473,-9.43473c0,-0.05487 -0.04453,-0.0994 -0.0994,-0.0994h-19.04996c-0.05487,0 -0.0994,0.04453 -0.0994,0.0994c0,15.81599 12.86749,28.68349 28.68349,28.68349h24.19791c15.81679,0 28.68349,-12.86749 28.68349,-28.68349c0,-15.81599 -12.86749,-28.68349 -28.68349,-28.68349h-24.19791c-5.20282,0 -9.43473,-4.23271 -9.43473,-9.43473c0,-5.20202 4.23191,-9.43473 9.43473,-9.43473h24.19791c5.20282,0 9.43473,4.23271 9.43473,9.43473c0,0.05487 0.04453,0.0994 0.0994,0.0994h19.04996c0.05487,0 0.0994,-0.04453 0.0994,-0.0994c0,-15.81599 -12.86749,-28.68349 -28.68349,-28.68349h-24.19791c-15.81679,0 -28.68349,12.86749 -28.68349,28.68349c0,15.81599 12.86749,28.68349 28.68349,28.68349h24.19791c5.20282,0 9.43473,4.23271 9.43473,9.43473c0,5.20202 -4.23191,9.43473 -9.43473,9.43473z" data-paper-data="{&quot;glyphName&quot;:&quot;S&quot;,&quot;glyphIndex&quot;:10,&quot;lastGlyphOfWord&quot;:true,&quot;word&quot;:2,&quot;line&quot;:2,&quot;lastGlyphOfSecondLine&quot;:true}" fill="#f4364c"></path></g></g></g></svg>