<svg xmlns:mydata="http://www.w3.org/2000/svg" mydata:contrastcolor="120a17" mydata:template="Contrast" mydata:presentation="2.5" mydata:layouttype="undefined" mydata:specialfontid="undefined" mydata:id1="1002" mydata:id2="206" mydata:companyname="elymentor labs" mydata:companytagline="" version="1.1" xmlns="http://www.w3.org/2000/svg" xmlns:xlink="http://www.w3.org/1999/xlink" viewBox="0 0 550 470"><defs><linearGradient x1="65" y1="235" x2="485" y2="235" gradientUnits="userSpaceOnUse" id="color-136214"><stop offset="0" stop-color="#7b4397"></stop><stop offset="1" stop-color="#dc2430"></stop></linearGradient></defs><g fill="url(#color-136214)" fill-rule="none" stroke="none" stroke-width="1" stroke-linecap="butt" stroke-linejoin="miter" stroke-miterlimit="10" stroke-dasharray="" stroke-dashoffset="0" font-family="none" font-weight="none" font-size="none" text-anchor="none" style="mix-blend-mode: normal"><g data-paper-data="{&quot;isGlobalGroup&quot;:true,&quot;bounds&quot;:{&quot;x&quot;:64.99999999999999,&quot;y&quot;:181.70523092744196,&quot;width&quot;:420,&quot;height&quot;:106.58953814511608}}"><g data-paper-data="{&quot;textHeightFactor&quot;:0.34823130692649873,&quot;isSecondaryText&quot;:true}" fill-rule="nonzero"><path d="M230.20387,280.08607h-5.13645l0.18579,-0.19671v-6.78667h-2.13108v8.85217h7.08174z" data-paper-data="{&quot;glyphName&quot;:&quot;L&quot;,&quot;glyphIndex&quot;:0,&quot;firstGlyphOfWord&quot;:true,&quot;word&quot;:1}" id="path-id-56804"></path><path d="M248.21903,278.18449l0.2295,-0.19671l0.66665,-1.377l0.32786,-0.89615l0.32786,0.89615l0.67757,1.377l0.21857,0.19671zM250.35011,273.10269h-1.80322l-4.40423,8.85217h2.34965l0.92893,-1.91251l-0.13114,-0.19671h4.29494l-0.13114,0.19671l0.95079,1.91251h2.32779z" data-paper-data="{&quot;glyphName&quot;:&quot;A&quot;,&quot;glyphIndex&quot;:1,&quot;word&quot;:1}" id="path-id-64743"></path><path d="M276.92041,279.16807c0,0.49179 -0.19671,0.918 -1.35515,0.918h-2.76494l0.19671,-0.19671v-1.45351l-0.20764,-0.19671h2.76494c1.10379,0 1.36608,0.46993 1.36608,0.92893zM276.53791,275.76927c0,0.40436 -0.16393,0.81965 -1.18029,0.81965h-2.55729l0.19671,-0.19671v-1.224l-0.19671,-0.19671h2.55729c0.96172,0 1.18029,0.37157 1.18029,0.79779zM279.08427,279.22271c0,-0.97265 -0.52457,-1.60651 -1.20215,-1.86879c0.5355,-0.33879 0.81965,-0.98357 0.81965,-1.63929c0,-1.40979 -1.11472,-2.61194 -3.23487,-2.61194h-4.60094v8.85217h4.6993c2.16386,0 3.51901,-1.00543 3.51901,-2.73215z" data-paper-data="{&quot;glyphName&quot;:&quot;B&quot;,&quot;glyphIndex&quot;:2,&quot;word&quot;:1}" id="path-id-18037"></path><path d="M302.25622,279.41943c0,-1.224 -0.9945,-2.24036 -2.87422,-2.67751c-0.20764,-0.04371 -1.224,-0.29507 -1.42072,-0.34972c-1.32236,-0.32786 -1.73765,-0.48086 -1.73765,-0.81965c0,-0.3825 0.55736,-0.73222 1.81415,-0.72129c0.97265,0 2.05458,0.52457 2.57915,1.13658l1.47536,-1.45351c-0.93986,-0.96172 -2.32779,-1.54093 -4.02173,-1.54093c-2.55729,0 -4.0108,1.1475 -4.0108,2.63379c0,1.56279 1.51908,2.15294 3.0928,2.53544c0.19671,0.05464 1.44258,0.34972 1.63929,0.39343c1.13658,0.27322 1.3005,0.6885 1.3005,0.86336c0,0.44807 -0.43714,0.77593 -1.72672,0.77593c-1.01636,0 -2.29501,-0.44807 -3.0163,-1.1475l-1.45351,1.46443c1.09286,1.00543 2.61194,1.55186 4.28401,1.55186c2.7868,0 4.07637,-1.24586 4.07637,-2.64472z" data-paper-data="{&quot;glyphName&quot;:&quot;S&quot;,&quot;glyphIndex&quot;:3,&quot;lastGlyphOfWord&quot;:true,&quot;word&quot;:1}" id="path-id-99804"></path><path d="M213.16358,257.43682v-1.42072h271.83642v1.42072z" data-paper-data="{&quot;isContainerTopLineAboveSecondaryText&quot;:true}" id="path-id-77686"></path></g><g data-paper-data="{&quot;isPrimaryText&quot;:true}" fill-rule="nonzero"><path d="M217.43854,213.06248c0.79452,0.09931 1.68835,-0.79452 1.68835,-1.68835c0,-0.19863 0,-0.29794 -0.09931,-0.49657c-0.39726,-1.39041 -1.29109,-0.89383 -1.98629,-2.48287l7.4486,-5.56163l2.78081,-1.58904c1.88698,-1.09246 3.67465,-1.98629 5.56163,-2.88013l6.15751,-2.48287c3.97259,-1.29109 5.76025,-1.78767 9.73284,-2.58218l7.15066,-0.89383c1.29109,-0.09931 2.28424,-0.29794 3.67465,-0.29794c1.48972,-0.09931 2.78081,-0.09931 3.87327,-0.09931c3.57533,0 5.85957,0.39726 10.52736,1.09246c1.78767,0.19863 2.97944,0.99315 3.97259,1.88698l-0.29794,2.58218c0.6952,0.6952 1.39041,0.99315 2.08561,0.99315c0.79452,0 1.48972,-0.59589 2.08561,-1.98629c0.19863,-0.49657 0.29794,-0.99315 0.29794,-1.39041c0,-3.17807 -4.36985,-5.66094 -7.64723,-6.0582c-6.15751,-0.89383 -8.83901,-1.19178 -11.52051,-1.19178c-2.6815,0 -5.363,0.29794 -11.61982,0.99315c-5.46231,0.59589 -10.1301,2.08561 -14.7979,3.67465l-6.55477,2.78081c-2.28424,1.09246 -7.15066,3.77396 -9.03764,5.26368c-0.49657,0.39726 -0.79452,0.6952 -1.29109,0.99315c-1.58904,0.89383 -2.97944,2.08561 -4.36985,3.27739c-0.79452,0.6952 -1.98629,1.88698 -1.98629,3.47602c0,1.48972 1.58904,4.27053 4.17122,4.66779zM224.39058,269.96982c6.45546,0 21.05472,-4.46916 26.51703,-6.65409c1.58904,-0.59589 7.54792,-2.48287 7.74655,-4.27053c0.19863,-1.48972 -0.39726,-1.98629 -1.48972,-1.98629c-2.08561,0 -5.76025,1.98629 -7.84586,2.6815c-1.39041,0.49657 -2.48287,0.89383 -3.97259,1.29109l-8.14381,2.58218c-3.07876,0.89383 -9.03764,2.48287 -12.61297,2.48287c-3.07876,0 -3.97259,-1.58904 -3.97259,-3.67465c0,-1.29109 0.39726,-2.88013 0.6952,-4.27053c0.49657,-1.98629 0.6952,-3.07876 1.29109,-4.86642c2.08561,-6.7534 5.06505,-13.40749 8.44175,-19.96226c6.7534,-1.78767 13.80475,-3.27739 20.65746,-3.27739c2.28424,0 1.88698,0.79452 2.97944,0.79452c1.68835,0 2.58218,-1.29109 2.58218,-2.48287c0,-1.19178 -0.79452,-2.28424 -2.38355,-2.28424c-8.93833,0 -14.20201,0.79452 -21.45198,2.6815c4.27053,-8.14381 8.7397,-16.08899 12.31503,-23.93485c0.39726,-0.79452 1.78767,-3.17807 1.78767,-4.76711c0,-0.89383 -0.39726,-1.58904 -1.58904,-1.78767c-1.68835,-0.19863 -2.18492,1.19178 -3.27739,3.17807c-1.58904,2.78081 -1.29109,4.27053 -4.17122,9.33558l-7.05135,13.01023c-0.89383,1.48972 -1.98629,3.77396 -3.27739,6.35614c-4.27053,1.09246 -6.45546,1.78767 -11.42119,3.67465c-1.48972,0.59589 -3.57533,1.09246 -3.57533,2.78081c-0.09931,1.48972 1.48972,1.98629 2.97944,1.98629c1.29109,0 2.58218,-0.29794 2.97944,-0.6952c1.39041,-1.48972 -0.89383,-0.89383 3.87327,-2.28424l2.97944,-0.89383c-2.88013,6.35614 -5.95888,13.30817 -7.05135,17.08213c-1.09246,3.27739 -2.18492,7.4486 -2.18492,10.92462c0,3.3767 2.08561,6.65409 6.25683,7.15066c0.39726,0.09931 0.89383,0.09931 1.39041,0.09931z" data-paper-data="{&quot;glyphName&quot;:&quot;E&quot;,&quot;glyphIndex&quot;:0,&quot;firstGlyphOfWord&quot;:true,&quot;word&quot;:1}" id="path-id-81086" fill="#ffffff"></path><path d="M276.13355,248.81578c2.48287,0 5.46231,-1.29109 7.54792,-2.18492c3.27739,-1.48972 12.91092,-5.66094 15.29447,-8.44175c0.29794,-0.39726 0.49657,-0.89383 0.49657,-1.39041c0,-0.79452 -0.49657,-1.39041 -1.29109,-1.39041c-1.09246,0 -1.78767,0.79452 -2.58218,1.29109c-0.99315,0.59589 -1.58904,0.99315 -2.48287,1.48972c-1.58904,0.99315 -3.47602,2.08561 -5.16437,2.88013c-1.78767,0.79452 -9.83216,4.36985 -11.81845,4.36985c-0.6952,0 -0.6952,-0.09931 -1.39041,-0.29794c-0.09931,-0.39726 -0.09931,-0.89383 -0.09931,-1.29109c0,-2.97944 1.68835,-6.95203 2.6815,-9.23627c1.19178,-2.6815 1.68835,-3.97259 1.98629,-4.66779c4.56848,-3.17807 16.48625,-14.7979 16.38693,-20.65746c0,-1.98629 -1.29109,-4.27053 -3.17807,-4.27053c-5.06505,0 -14.49995,18.67117 -15.98967,22.64376c-0.49657,0.6952 -1.98629,1.58904 -1.98629,2.48287c0,1.29109 0.19863,1.39041 0.19863,1.58904c0,0.19863 -0.19863,0.49657 -0.79452,2.08561c-0.39726,1.09246 -0.6952,1.68835 -1.19178,2.97944c-0.49657,1.58904 -1.58904,4.46916 -1.58904,7.05135c0,1.39041 0.29794,2.58218 1.19178,3.47602c0.99315,1.09246 2.28424,1.48972 3.77396,1.48972zM282.39038,223.49053c2.38355,-5.06505 8.24312,-14.59927 9.93147,-14.59927c1.19178,0 -6.25683,11.91777 -9.93147,14.59927z" data-paper-data="{&quot;glyphName&quot;:&quot;l&quot;,&quot;glyphIndex&quot;:1,&quot;word&quot;:1}" id="path-id-95382" fill="#ffffff"></path><path d="M296.09581,265.50066c2.88013,0 9.03764,-6.25683 11.12325,-8.7397c1.58904,-1.88698 3.3767,-5.363 4.27053,-7.64723c1.58904,-4.0719 0.99315,-2.97944 6.25683,-5.46231l11.52051,-4.36985c1.39041,-0.49657 2.08561,-1.48972 2.08561,-2.18492c0,-0.79452 -0.59589,-1.39041 -1.48972,-1.39041c-1.88698,0 -9.63353,3.17807 -12.01708,4.17122c-1.19178,0.49657 -2.78081,1.39041 -3.87327,1.68835c0,-1.29109 0.29794,-1.09246 0.29794,-3.07876c0,-1.48972 -1.29109,-2.48287 -2.48287,-2.78081c-1.78767,0.89383 -1.39041,1.48972 -3.27739,2.58218l-7.84586,4.46916c-1.48972,0.79452 -2.78081,1.19178 -4.27053,1.88698c0.49657,-1.98629 1.39041,-3.3767 2.38355,-4.96574l2.6815,-4.56848c0,-0.49657 -0.59589,-1.68835 -1.58904,-1.68835c-0.59589,0 -1.39041,0.59589 -2.38355,2.18492c-1.29109,2.08561 -4.36985,6.65409 -4.36985,9.03764c0,1.78767 1.48972,3.27739 3.27739,3.27739c1.78767,0 5.95888,-2.28424 7.24998,-3.07876c2.28424,-1.29109 4.36985,-2.38355 6.65409,-3.57533c-0.19863,2.97944 -1.48972,3.17807 -2.88013,4.0719c-1.78767,1.19178 -5.66094,3.77396 -7.05135,5.16437c-3.3767,3.3767 -7.84586,7.4486 -7.84586,12.41434c0,2.48287 2.18492,2.58218 3.57533,2.58218zM295.89718,262.12396c0.99315,-4.56848 8.14381,-10.42805 11.61982,-12.8116c-0.49657,2.38355 -3.27739,5.66094 -4.76711,7.4486c-1.29109,1.58904 -5.06505,4.36985 -6.85272,5.363z" data-paper-data="{&quot;glyphName&quot;:&quot;y&quot;,&quot;glyphIndex&quot;:2,&quot;word&quot;:1}" id="path-id-15452" fill="#ffffff"></path><path d="M327.97584,244.84319c2.18492,0 5.26368,-3.27739 7.24998,-4.66779c0.79452,-0.59589 1.68835,-1.19178 2.58218,-1.68835c0,0.6952 -0.29794,1.88698 -0.29794,3.07876c0,1.58904 0.49657,3.07876 2.78081,3.07876c1.19178,0 2.28424,-0.89383 3.07876,-1.39041c1.48972,-1.19178 6.7534,-5.56163 8.04449,-5.85957c0,0.09931 -0.19863,0.89383 -0.19863,1.68835c0,1.48972 0.49657,3.27739 3.27739,3.27739c3.3767,0 9.03764,-2.08561 15.39378,-4.46916c0.39726,-0.19863 0.6952,-0.6952 0.6952,-1.19178c0,-0.49657 -0.39726,-1.09246 -1.29109,-1.09246h-0.49657c-1.09246,0.19863 -8.83901,3.97259 -14.10269,3.97259c0.19863,-1.48972 0.29794,-2.58218 0.29794,-3.47602c0,-2.08561 -0.59589,-2.88013 -2.78081,-2.88013c-2.38355,0 -9.23627,6.35614 -11.42119,7.4486c0.59589,-2.28424 1.19178,-3.17807 1.19178,-4.76711c0,-0.59589 -0.09931,-1.29109 -0.29794,-2.18492c-0.29794,-0.09931 -1.29109,-0.49657 -1.68835,-0.49657c-1.19178,0 -7.54792,4.86642 -8.93833,5.76025c0.09931,-0.29794 1.88698,-3.57533 1.88698,-5.46231c0,-0.89383 -0.29794,-1.48972 -1.29109,-1.48972c-1.39041,0 -1.68835,0.79452 -2.08561,1.88698c-0.39726,1.09246 -0.59589,1.98629 -0.99315,2.88013c-0.6952,1.48972 -2.18492,3.87327 -2.18492,5.85957c0,1.78767 1.29109,2.18492 1.58904,2.18492z" data-paper-data="{&quot;glyphName&quot;:&quot;m&quot;,&quot;glyphIndex&quot;:3,&quot;word&quot;:1}" id="path-id-57277" fill="#ffffff"></path><path d="M373.95856,246.2336c5.363,0 13.30817,-4.46916 17.47939,-7.34929c0.79452,-0.59589 1.19178,-1.19178 1.19178,-1.58904c0,-0.39726 -0.29794,-0.59589 -0.6952,-0.59589c-0.29794,0 -0.79452,0.09931 -1.29109,0.39726c-4.66779,2.48287 -12.21571,6.25683 -17.28076,6.25683c-2.6815,0 -4.0719,-1.19178 -4.0719,-2.78081c0,-0.6952 0.29794,-1.39041 0.79452,-2.18492c0.49657,0.19863 1.09246,0.19863 1.68835,0.19863c4.17122,0 9.73284,-3.57533 9.4349,-6.65409c-0.09931,-1.78767 -1.98629,-3.17807 -4.27053,-2.88013c-3.47602,0.59589 -11.32188,6.85272 -11.32188,12.1164c0,4.86642 5.06505,5.06505 8.34244,5.06505zM371.4757,236.1035c2.38355,-3.47602 5.76025,-5.46231 7.05135,-4.66779c0.39726,1.58904 -3.17807,4.56848 -7.05135,4.66779z" data-paper-data="{&quot;glyphName&quot;:&quot;e&quot;,&quot;glyphIndex&quot;:4,&quot;word&quot;:1}" id="path-id-40336" fill="#ffffff"></path><path d="M389.65029,244.04868c3.17807,0 7.4486,-6.85272 13.80475,-9.73284c-0.59589,1.68835 -0.89383,3.17807 -0.89383,4.56848c0,2.97944 1.39041,4.96574 3.47602,4.86642c3.77396,-0.29794 9.93147,-3.07876 14.30132,-5.26368c0.79452,-0.39726 1.19178,-0.99315 1.19178,-1.48972c0,-0.59589 -0.49657,-1.09246 -1.29109,-1.09246c-0.39726,0 -0.89383,0.09931 -1.39041,0.39726c-1.98629,0.89383 -10.1301,4.66779 -11.91777,4.76711c-0.6952,0 -0.99315,-0.79452 -0.99315,-1.88698c0,-1.39041 0.39726,-3.17807 0.6952,-4.56848c0.09931,-0.59589 0.19863,-1.09246 0.19863,-1.48972c0,-1.48972 -0.79452,-1.88698 -1.88698,-1.88698h-0.39726c-2.78081,0 -9.4349,4.27053 -13.30817,8.93833c0.6952,-2.6815 3.07876,-7.4486 3.07876,-9.73284c-0.6952,-0.59589 -1.29109,-0.89383 -1.68835,-0.89383c-1.68835,0 -2.18492,3.3767 -3.3767,6.65409c-0.59589,1.58904 -1.58904,3.87327 -1.58904,5.56163c0,1.29109 0.49657,2.28424 1.98629,2.28424z" data-paper-data="{&quot;glyphName&quot;:&quot;n&quot;,&quot;glyphIndex&quot;:5,&quot;word&quot;:1}" id="path-id-31760" fill="#ffffff"></path><path d="M416.06801,258.44931c1.19178,0 2.97944,-0.89383 2.97944,-2.48287c0,-0.99315 -0.79452,-0.89383 -0.79452,-2.28424v-0.39726c0.89383,-9.33558 9.03764,-23.73622 14.69858,-33.86632c3.3767,0 6.7534,0.09931 10.1301,0.39726c0.99315,0.09931 0.39726,0.89383 1.68835,0.99315c0.59589,0 1.39041,-0.79452 1.39041,-1.58904c0,-0.89383 -0.89383,-1.88698 -3.67465,-2.18492c-2.58218,-0.19863 -5.363,-0.29794 -7.94518,-0.39726c1.68835,-2.97944 2.97944,-5.363 3.67465,-6.95203c0.49657,-0.99315 -1.19178,-2.08561 -2.08561,-2.08561c-0.59589,-0.09931 -1.09246,0.29794 -1.68835,1.29109c-0.89383,1.68835 -2.48287,4.46916 -4.27053,7.84586h-0.59589l-12.21571,0.59589c0,-1.19178 -0.6952,-1.58904 -1.68835,-1.58904c-0.99315,0 -2.18492,0.39726 -2.97944,0.79452c-1.68835,0.79452 -2.08561,1.19178 -2.08561,2.48287c0,0.99315 1.48972,1.19178 2.97944,1.19178c1.19178,0 2.58218,-0.19863 3.27739,-0.19863c3.97259,-0.29794 7.84586,-0.49657 11.81845,-0.59589c-6.25683,11.91777 -14.7979,29.19853 -14.7979,36.05125c0,1.88698 0.6952,2.97944 2.18492,2.97944z" data-paper-data="{&quot;glyphName&quot;:&quot;t&quot;,&quot;glyphIndex&quot;:6,&quot;word&quot;:1}" id="path-id-98776" fill="#ffffff"></path><path d="M433.24946,244.44593c2.6815,0 6.0582,-1.48972 7.64723,-2.48287c1.78767,-1.09246 3.3767,-2.28424 4.27053,-4.0719c1.58904,0.6952 4.0719,1.39041 6.95203,1.39041c1.88698,0 3.87327,-0.29794 5.95888,-1.09246c0.99315,-0.39726 1.48972,-1.09246 1.48972,-1.78767c0,-0.59589 -0.49657,-1.19178 -1.39041,-1.19178c-0.39726,0 -0.89383,0.09931 -1.48972,0.29794c-1.39041,0.59589 -2.78081,0.79452 -3.97259,0.79452c-4.66779,0 -7.94518,-3.17807 -9.23627,-3.27739c-1.09246,-0.09931 -2.08561,0.39726 -2.08561,1.58904c0,0.59589 0.19863,1.29109 0.6952,2.18492c-0.6952,0.49657 -0.89383,0.89383 -1.78767,1.48972c-0.6952,0.49657 -1.29109,0.89383 -2.08561,1.29109c-1.48972,0.79452 -2.58218,1.29109 -4.66779,1.39041c-0.79452,0 -0.99315,-0.19863 -0.99315,-0.59589c0,-2.08561 3.87327,-5.26368 5.76025,-5.46231c1.19178,-0.19863 2.18492,-0.89383 2.18492,-2.18492c0,-0.99315 -0.79452,-1.88698 -1.98629,-1.88698c-2.28424,0 -9.23627,7.34929 -9.23627,9.53421c0,1.19178 -0.09931,2.08561 1.09246,3.17807c0.79452,0.59589 1.78767,0.89383 2.88013,0.89383z" data-paper-data="{&quot;glyphName&quot;:&quot;o&quot;,&quot;glyphIndex&quot;:7,&quot;word&quot;:1}" id="path-id-58557" fill="#ffffff"></path><path d="M456.58842,245.33977c0.39726,0 0.6952,-0.09931 1.09246,-0.19863c2.28424,-0.99315 8.24312,-8.44175 10.32873,-10.82531c0,4.76711 3.97259,4.86642 6.95203,4.76711c3.17807,-0.19863 9.93147,0.49657 10.03079,-2.28424c0.09931,-1.29109 -0.79452,-1.48972 -1.78767,-1.48972c-0.79452,0 -1.68835,0.09931 -2.38355,0.09931c-3.47602,0 -5.85957,0.39726 -7.24998,0.39726c-1.68835,0 -2.28424,-0.49657 -2.18492,-2.58218c0,-1.19178 0.09931,-1.98629 0.09931,-2.58218c0,-1.09246 -0.29794,-1.68835 -1.48972,-2.48287c-1.58904,-0.49657 -3.3767,2.48287 -4.66779,3.97259c-1.78767,1.98629 -3.3767,4.17122 -5.363,6.0582c0.19863,-0.59589 1.29109,-2.28424 1.29109,-3.57533c0,-0.79452 -0.39726,-1.39041 -1.58904,-1.68835c-1.39041,0.19863 -5.16437,8.64038 -5.06505,10.52736c0.09931,1.19178 0.99315,1.88698 1.98629,1.88698z" data-paper-data="{&quot;glyphName&quot;:&quot;r&quot;,&quot;glyphIndex&quot;:8,&quot;lastGlyphOfWord&quot;:true,&quot;word&quot;:1}" id="path-id-60157" fill="#ffffff"></path></g><g data-paper-data="{&quot;fillRule&quot;:&quot;evenodd&quot;,&quot;isIcon&quot;:true,&quot;iconStyle&quot;:&quot;standalone&quot;,&quot;selectedEffects&quot;:{&quot;container&quot;:&quot;&quot;,&quot;transformation&quot;:&quot;&quot;,&quot;pattern&quot;:&quot;&quot;},&quot;bounds&quot;:{&quot;x&quot;:64.99999999999999,&quot;y&quot;:181.70523092744196,&quot;width&quot;:106.67866213160131,&quot;height&quot;:106.58937942243602},&quot;iconType&quot;:&quot;icon&quot;,&quot;rawIconId&quot;:&quot;4034173&quot;,&quot;isDetailed&quot;:false,&quot;suitableAsStandaloneIcon&quot;:true}" fill-rule="evenodd"><g data-paper-data="{&quot;isPathIcon&quot;:true}"><path d="M121.4669,181.70523c13.07198,0.745 25.41095,6.28499 34.65294,15.55897c16.83097,16.89597 20.40796,42.90792 8.76298,63.71889c-11.64498,20.81196 -35.68394,31.37094 -58.88789,25.86595c-23.20426,-5.50399 -39.93923,-25.73595 -40.99493,-49.56091c0.0382,-1.259 1.042,-2.274 2.3,-2.326c1.258,-0.053 2.343,0.875 2.4862,2.126c1.1055,26.19995 22.78656,46.80492 49.00971,46.57692c26.22195,-0.229 47.54091,-21.20896 48.18991,-47.42391c0.648,-26.21595 -19.60696,-48.22391 -45.78592,-49.74991c-0.638,-0.038 -1.233,-0.329 -1.656,-0.808c-0.422,-0.479 -0.637,-1.106 -0.595,-1.743c0.034,-0.632 0.319,-1.223 0.792,-1.643c0.396,-0.351 0.896,-0.558 1.418,-0.592z" id="path-id-6880"></path><path d="M162.82582,236.58913c-0.844,23.95896 -20.48696,42.95992 -44.46092,43.00692c-11.81698,-0.009 -23.14516,-4.71899 -31.48534,-13.09098c-0.6464,-0.953 -0.525,-2.231 0.2895,-3.04499c0.8145,-0.815 2.0924,-0.936 3.04579,-0.29c12.49008,12.50498 31.73104,15.27697 47.24302,6.80599c15.51297,-8.47098 23.58196,-26.15695 19.81296,-43.42492c-3.76899,-17.26797 -18.47297,-29.98395 -36.10494,-31.22094c-1.317,-0.092 -2.31,-1.234 -2.217,-2.552c0.092,-1.317 1.234,-2.31 2.551,-2.218c23.91196,1.734 42.16992,22.06896 41.32593,46.02892z" id="path-id-59962"></path><path d="M140.26086,213.10717c8.75998,8.75798 11.46598,21.88996 6.88199,33.39694c-4.58399,11.50798 -15.57897,19.18197 -27.96095,19.51796c-1.317,0 -2.385,1.067 -2.385,2.384c0,1.318 1.068,2.385 2.385,2.385c18.93897,-0.44 34.24994,-15.56797 34.91794,-34.49994c0.668,-18.93197 -13.53998,-35.10194 -32.39994,-36.87493h-0.35c-1.255,0.051 -2.258,1.06 -2.302,2.316c-0.043,1.254 0.887,2.331 2.135,2.47h0.117c7.16099,0.684 13.86198,3.83099 18.96097,8.90498z" id="path-id-30766"></path><path d="M144.41286,240.19613c-2.462,12.43998 -13.36698,21.40896 -26.04795,21.42296c-7.05399,0.013 -13.82298,-2.78299 -18.81127,-7.77099c-8.97378,-8.95998 -10.36908,-23.01096 -3.33289,-33.56094c7.03619,-10.54998 20.54416,-14.65997 32.26414,-9.81898c11.72098,4.84199 18.38897,17.28797 15.92797,29.72795zM126.71289,214.86017c-8.15799,-3.37899 -17.54797,-1.51 -23.79096,4.73399c-4.12949,4.07399 -6.45459,9.63298 -6.45459,15.43397c0,5.80099 2.3251,11.36098 6.45459,15.43397c6.24299,6.24499 15.63297,8.11299 23.79096,4.73499c8.15699,-3.37899 13.47698,-11.33898 13.47698,-20.16896c0,-8.82898 -5.31999,-16.78897 -13.47698,-20.16796z" id="path-id-65984"></path></g></g><path d="M188.27263,288.29477v-106.58954h1.29446v106.58954z" data-paper-data="{&quot;isShapeTextSeparator&quot;:true}" fill-rule="nonzero" id="path-id-80873"></path></g></g><rect data-path-id="path-id-6880" class="invisible-bbox" x="65" y="182" fill="transparent" width="107" height="107"></rect><rect data-path-id="path-id-59962" class="invisible-bbox" x="86" y="191" fill="transparent" width="76" height="89"></rect><rect data-path-id="path-id-81086" class="invisible-bbox" x="213" y="188" fill="transparent" width="69" height="82"></rect><rect data-path-id="path-id-65984" class="invisible-bbox" x="92" y="208" fill="transparent" width="53" height="53"></rect><rect data-path-id="path-id-30766" class="invisible-bbox" x="117" y="199" fill="transparent" width="37" height="71"></rect><rect data-path-id="path-id-98776" class="invisible-bbox" x="411" y="208" fill="transparent" width="36" height="51"></rect><rect data-path-id="path-id-15452" class="invisible-bbox" x="293" y="233" fill="transparent" width="39" height="32"></rect><rect data-path-id="path-id-95382" class="invisible-bbox" x="271" y="205" fill="transparent" width="28" height="44"></rect><rect data-path-id="path-id-57277" class="invisible-bbox" x="326" y="232" fill="transparent" width="44" height="13"></rect><rect data-path-id="path-id-60157" class="invisible-bbox" x="455" y="228" fill="transparent" width="30" height="17"></rect><rect data-path-id="path-id-31760" class="invisible-bbox" x="388" y="230" fill="transparent" width="34" height="14"></rect><rect data-path-id="path-id-40336" class="invisible-bbox" x="366" y="229" fill="transparent" width="27" height="17"></rect><rect data-path-id="path-id-58557" class="invisible-bbox" x="429" y="231" fill="transparent" width="30" height="14"></rect><rect data-path-id="path-id-77686" class="invisible-bbox" x="213" y="256" fill="transparent" width="272" height="1"></rect><rect data-path-id="path-id-80873" class="invisible-bbox" x="188" y="182" fill="transparent" width="1" height="107"></rect><rect data-path-id="path-id-64743" class="invisible-bbox" x="244" y="273" fill="transparent" width="11" height="9"></rect><rect data-path-id="path-id-18037" class="invisible-bbox" x="271" y="273" fill="transparent" width="8" height="9"></rect><rect data-path-id="path-id-99804" class="invisible-bbox" x="294" y="273" fill="transparent" width="8" height="9"></rect><rect data-path-id="path-id-56804" class="invisible-bbox" x="223" y="273" fill="transparent" width="7" height="9"></rect></svg>